<?xml version="1.0" encoding="utf-8"?>
<!-- Generator: Adobe Illustrator 23.0.4, SVG Export Plug-In . SVG Version: 6.00 Build 0)  -->
<svg version="1.1" id="Calque_1" xmlns="http://www.w3.org/2000/svg" xmlns:xlink="http://www.w3.org/1999/xlink" x="0px" y="0px"
	 viewBox="0 0 500 500" style="enable-background:new 0 0 500 500;" xml:space="preserve">
<style type="text/css">
	.st0{fill:url(#SVGID_1_);}
</style>
<linearGradient id="SVGID_1_" gradientUnits="userSpaceOnUse" x1="250" y1="395.7181" x2="250" y2="104.3222">
	<stop  offset="0" style="stop-color:#154074"/>
	<stop  offset="1" style="stop-color:#4B77B4"/>
</linearGradient>
<path class="st0" d="M93.3,233.3v-46.7c0-26.2,7.9-47.2,23.7-63c15.8-15.8,36.8-23.7,63-23.7c13.8,0,25.8,2.1,36,6.3
	c10.2,4.2,19.2,9.6,27,16c7.8,6.5,14.7,13.5,20.7,21c6,7.6,11.8,14.6,17.3,21c5.6,6.5,11.3,11.8,17.3,16c6,4.2,12.8,6.3,20.3,6.3
	c20.9,0,31.3-12.2,31.3-36.7v-46.7h56.7V150c0,25.8-7.9,46.7-23.7,62.7c-15.8,16-36.8,24-63,24c-13.8,0-25.8-2.1-36-6.3
	c-10.2-4.2-19.2-9.6-27-16c-7.8-6.4-14.7-13.4-20.7-21c-6-7.6-11.8-14.6-17.3-21c-5.6-6.4-11.3-11.8-17.3-16
	c-6-4.2-12.8-6.3-20.3-6.3c-20.9,0-31.3,12.2-31.3,36.7v46.7H93.3z M93.3,396.7V350c0-26.2,7.9-47.2,23.7-63
	c15.8-15.8,36.8-23.7,63-23.7c13.8,0,25.8,2.1,36,6.3c10.2,4.2,19.2,9.6,27,16c7.8,6.5,14.7,13.5,20.7,21c6,7.6,11.8,14.6,17.3,21
	c5.6,6.5,11.3,11.8,17.3,16c6,4.2,12.8,6.3,20.3,6.3c20.9,0,31.3-12.2,31.3-36.7v-46.7h56.7v46.7c0,25.8-7.9,46.7-23.7,62.7
	c-15.8,16-36.8,24-63,24c-13.8,0-25.8-2.1-36-6.3c-10.2-4.2-19.2-9.6-27-16c-7.8-6.4-14.7-13.4-20.7-21c-6-7.6-11.8-14.6-17.3-21
	c-5.6-6.4-11.3-11.8-17.3-16c-6-4.2-12.8-6.3-20.3-6.3c-20.9,0-31.3,12.2-31.3,36.7v46.7H93.3z"/>
</svg>
