<?xml version="1.0" standalone="no"?>
<!DOCTYPE svg PUBLIC "-//W3C//DTD SVG 20010904//EN"
 "http://www.w3.org/TR/2001/REC-SVG-20010904/DTD/svg10.dtd">
<svg version="1.0" xmlns="http://www.w3.org/2000/svg"
 width="700.000000pt" height="700.000000pt" viewBox="0 0 700.000000 700.000000"
 preserveAspectRatio="xMidYMid meet">
<metadata>
Created by potrace 1.11, written by Peter Selinger 2001-2013
</metadata>
<g transform="translate(0.000000,700.000000) scale(0.100000,-0.100000)"
fill="#000000" stroke="none">
<path d="M2268 6055 c-2 -1 -48 -5 -103 -9 -288 -17 -536 -99 -752 -248 -96
-65 -251 -219 -318 -313 -101 -144 -194 -361 -224 -525 -33 -175 -36 -227 -36
-715 l0 -460 480 0 480 0 1 440 c2 432 3 468 23 571 50 259 225 402 496 405
254 2 431 -111 725 -460 25 -30 50 -59 55 -65 6 -6 38 -45 70 -86 33 -41 62
-77 65 -80 3 -3 25 -30 50 -60 286 -351 627 -584 986 -674 54 -14 128 -28 164
-32 36 -3 68 -8 72 -11 9 -5 345 -4 378 1 14 2 52 8 85 12 33 4 62 8 65 9 180
42 262 70 385 130 369 182 626 525 714 950 33 159 37 237 36 712 l0 448 -481
1 -481 0 0 -441 c0 -243 -4 -463 -8 -491 -5 -27 -8 -52 -7 -56 3 -14 -41 -144
-63 -188 -53 -104 -158 -187 -280 -221 -77 -21 -286 -19 -355 5 -187 63 -370
229 -680 616 -315 394 -557 592 -889 725 -89 35 -243 77 -326 89 -58 8 -322
25 -327 21z"/>
<path d="M2277 3274 c-1 -1 -55 -4 -120 -8 -66 -3 -122 -8 -126 -10 -3 -2 -27
-7 -51 -11 -80 -11 -203 -46 -293 -81 -80 -32 -215 -99 -227 -113 -3 -3 -32
-24 -65 -46 -80 -54 -219 -192 -290 -288 -120 -165 -205 -370 -245 -597 -21
-116 -23 -160 -26 -617 -2 -375 0 -492 9 -495 7 -3 224 -4 482 -4 l470 1 2
450 c1 359 4 466 17 531 38 201 119 320 261 385 85 38 102 41 235 45 176 4
283 -33 420 -143 145 -117 215 -193 485 -523 200 -245 343 -385 516 -505 102
-72 106 -74 231 -137 146 -73 314 -126 463 -143 33 -4 69 -9 80 -12 34 -6 328
-5 380 2 28 3 66 8 85 11 105 13 272 59 365 100 22 10 42 18 45 18 3 1 39 20
81 43 293 161 518 435 624 757 18 56 36 118 39 140 3 21 8 41 10 45 5 8 16 86
25 181 4 41 7 275 7 520 l-1 445 -480 0 -480 0 -1 -420 c-1 -485 -5 -549 -41
-660 -71 -222 -226 -330 -480 -334 -164 -3 -283 41 -427 157 -115 93 -204 188
-404 432 -210 256 -266 318 -394 435 -158 146 -383 286 -563 349 -27 10 -59
22 -70 26 -27 12 -179 46 -240 55 -43 6 -304 22 -308 19z"/>
</g>
</svg>
