<?xml version="1.0" standalone="no"?>
<!DOCTYPE svg PUBLIC "-//W3C//DTD SVG 20010904//EN"
 "http://www.w3.org/TR/2001/REC-SVG-20010904/DTD/svg10.dtd">
<svg version="1.0" xmlns="http://www.w3.org/2000/svg"
 width="700.000000pt" height="700.000000pt" viewBox="0 0 700.000000 700.000000"
 preserveAspectRatio="xMidYMid meet">
<metadata>
Created by potrace 1.11, written by Peter Selinger 2001-2013
</metadata>
<g transform="translate(0.000000,700.000000) scale(0.100000,-0.100000)"
fill="#000000" stroke="none">
<path d="M3289 6926 c-2 -2 -42 -6 -89 -10 -47 -3 -98 -8 -115 -11 -104 -15
-174 -26 -200 -30 -57 -10 -180 -36 -210 -45 -16 -5 -41 -11 -55 -14 -61 -11
-351 -109 -455 -155 -430 -186 -786 -429 -1110 -757 -167 -169 -310 -347 -438
-546 -49 -76 -187 -315 -187 -324 0 -1 -20 -45 -44 -96 -58 -125 -155 -378
-170 -443 -2 -5 -8 -30 -15 -55 -8 -25 -14 -49 -15 -55 -1 -5 -5 -19 -9 -30
-3 -11 -9 -31 -11 -45 -3 -14 -12 -55 -20 -91 -9 -37 -22 -113 -31 -170 -9
-57 -18 -115 -20 -128 -20 -120 -28 -577 -12 -716 4 -38 10 -92 13 -120 3 -27
9 -75 15 -105 5 -30 11 -73 14 -95 4 -22 10 -56 15 -75 5 -19 11 -49 14 -65
18 -102 116 -410 181 -565 37 -89 147 -312 189 -385 20 -33 43 -73 52 -89 19
-34 138 -209 168 -248 12 -14 32 -41 46 -59 312 -416 819 -815 1300 -1024 47
-21 103 -46 126 -56 127 -57 518 -170 674 -194 25 -4 53 -9 63 -11 149 -27
312 -39 552 -39 245 0 356 9 578 45 563 93 1140 357 1592 729 181 148 370 340
505 512 27 35 63 80 78 99 43 54 172 254 230 356 52 91 133 259 200 414 6 14
26 70 45 125 101 293 150 515 183 835 16 146 9 625 -10 727 -2 10 -7 43 -11
73 -11 88 -52 286 -80 393 -30 116 -118 369 -168 483 -83 191 -236 460 -363
638 -163 228 -406 486 -614 651 -41 33 -80 65 -87 70 -7 6 -18 15 -26 21 -56
47 -284 194 -402 259 -182 102 -496 235 -635 270 -3 1 -12 4 -20 7 -8 4 -26 9
-40 12 -14 4 -65 17 -115 31 -108 28 -277 60 -400 75 -49 6 -103 13 -120 16
-36 6 -530 16 -536 10z"/>
</g>
</svg>
